<svg width="185" height="24" viewBox="0 0 185 24" fill="none" xmlns="http://www.w3.org/2000/svg">
<path d="M173.248 23.725C172.632 23.725 172.157 23.5583 171.823 23.225C171.507 22.9083 171.348 22.4333 171.348 21.8V8.42498C171.348 7.80831 171.507 7.34164 171.823 7.02498C172.157 6.69164 172.615 6.52498 173.198 6.52498C173.815 6.52498 174.282 6.69164 174.598 7.02498C174.915 7.34164 175.073 7.80831 175.073 8.42498V10.125L174.798 9.14998C175.048 8.34998 175.548 7.70831 176.298 7.22498C177.065 6.72498 177.94 6.47498 178.923 6.47498C179.99 6.47498 180.923 6.73331 181.723 7.24998C182.54 7.76664 183.173 8.49998 183.623 9.44998C184.073 10.4 184.298 11.5333 184.298 12.85C184.298 14.1666 184.073 15.3083 183.623 16.275C183.173 17.2416 182.548 17.9833 181.748 18.5C180.948 19.0166 180.007 19.275 178.923 19.275C177.957 19.275 177.098 19.0416 176.348 18.575C175.598 18.0916 175.09 17.4666 174.823 16.7H175.123V21.8C175.123 22.4333 174.957 22.9083 174.623 23.225C174.307 23.5583 173.848 23.725 173.248 23.725ZM177.798 16.45C178.332 16.45 178.798 16.3166 179.198 16.05C179.615 15.7833 179.932 15.3916 180.148 14.875C180.382 14.3416 180.498 13.6666 180.498 12.85C180.498 11.6333 180.248 10.7416 179.748 10.175C179.248 9.59164 178.598 9.29998 177.798 9.29998C177.265 9.29998 176.79 9.42498 176.373 9.67498C175.973 9.92498 175.657 10.3166 175.423 10.85C175.19 11.3666 175.073 12.0333 175.073 12.85C175.073 14.0666 175.323 14.975 175.823 15.575C176.323 16.1583 176.982 16.45 177.798 16.45Z" fill="#6B60E6"/>
<path d="M157.99 23.725C157.373 23.725 156.898 23.5583 156.565 23.225C156.248 22.9083 156.09 22.4333 156.09 21.8V8.42498C156.09 7.80831 156.248 7.34164 156.565 7.02498C156.898 6.69164 157.356 6.52498 157.94 6.52498C158.556 6.52498 159.023 6.69164 159.34 7.02498C159.656 7.34164 159.815 7.80831 159.815 8.42498V10.125L159.54 9.14998C159.79 8.34998 160.29 7.70831 161.04 7.22498C161.806 6.72498 162.681 6.47498 163.665 6.47498C164.731 6.47498 165.665 6.73331 166.465 7.24998C167.281 7.76664 167.915 8.49998 168.365 9.44998C168.815 10.4 169.04 11.5333 169.04 12.85C169.04 14.1666 168.815 15.3083 168.365 16.275C167.915 17.2416 167.29 17.9833 166.49 18.5C165.69 19.0166 164.748 19.275 163.665 19.275C162.698 19.275 161.84 19.0416 161.09 18.575C160.34 18.0916 159.831 17.4666 159.565 16.7H159.865V21.8C159.865 22.4333 159.698 22.9083 159.365 23.225C159.048 23.5583 158.59 23.725 157.99 23.725ZM162.54 16.45C163.073 16.45 163.54 16.3166 163.94 16.05C164.356 15.7833 164.673 15.3916 164.89 14.875C165.123 14.3416 165.24 13.6666 165.24 12.85C165.24 11.6333 164.99 10.7416 164.49 10.175C163.99 9.59164 163.34 9.29998 162.54 9.29998C162.006 9.29998 161.531 9.42498 161.115 9.67498C160.715 9.92498 160.398 10.3166 160.165 10.85C159.931 11.3666 159.815 12.0333 159.815 12.85C159.815 14.0666 160.065 14.975 160.565 15.575C161.065 16.1583 161.723 16.45 162.54 16.45Z" fill="#6B60E6"/>
<path d="M146.324 19.275C145.424 19.275 144.615 19.1 143.899 18.75C143.182 18.4 142.624 17.925 142.224 17.325C141.824 16.725 141.624 16.05 141.624 15.3C141.624 14.4 141.857 13.6916 142.324 13.175C142.79 12.6416 143.549 12.2666 144.599 12.05C145.649 11.8166 147.04 11.7 148.774 11.7H150.099V13.65H148.799C147.949 13.65 147.257 13.7 146.724 13.8C146.207 13.8833 145.832 14.0333 145.599 14.25C145.382 14.4666 145.274 14.7666 145.274 15.15C145.274 15.6166 145.432 16 145.749 16.3C146.082 16.6 146.557 16.75 147.174 16.75C147.657 16.75 148.082 16.6416 148.449 16.425C148.832 16.1916 149.132 15.8833 149.349 15.5C149.565 15.1 149.674 14.65 149.674 14.15V11.275C149.674 10.5416 149.507 10.025 149.174 9.72498C148.84 9.40831 148.274 9.24998 147.474 9.24998C147.024 9.24998 146.532 9.30831 145.999 9.42498C145.482 9.52498 144.907 9.69998 144.274 9.94998C143.907 10.1166 143.582 10.1583 143.299 10.075C143.015 9.97498 142.799 9.80831 142.649 9.57498C142.499 9.32498 142.424 9.05831 142.424 8.77498C142.424 8.47498 142.507 8.19164 142.674 7.92498C142.84 7.64164 143.115 7.43331 143.499 7.29998C144.282 6.98331 145.015 6.76664 145.699 6.64998C146.399 6.53331 147.04 6.47498 147.624 6.47498C148.907 6.47498 149.957 6.66664 150.774 7.04998C151.607 7.41664 152.232 7.99164 152.649 8.77498C153.065 9.54164 153.274 10.5333 153.274 11.75V17.3C153.274 17.9166 153.124 18.3916 152.824 18.725C152.524 19.0583 152.09 19.225 151.524 19.225C150.957 19.225 150.515 19.0583 150.199 18.725C149.899 18.3916 149.749 17.9166 149.749 17.3V16.375L149.924 16.525C149.824 17.0916 149.607 17.5833 149.274 18C148.957 18.4 148.549 18.7166 148.049 18.95C147.549 19.1666 146.974 19.275 146.324 19.275Z" fill="#6B60E6"/>
<path d="M137.553 19.125C136.887 19.125 136.353 18.925 135.953 18.525C135.57 18.125 135.378 17.6083 135.378 16.975C135.378 16.3583 135.57 15.8583 135.953 15.475C136.353 15.075 136.887 14.875 137.553 14.875C138.22 14.875 138.737 15.075 139.103 15.475C139.487 15.8583 139.678 16.3583 139.678 16.975C139.678 17.6083 139.487 18.125 139.103 18.525C138.737 18.925 138.22 19.125 137.553 19.125Z" fill="#6B60E6"/>
<path d="M128.246 19.275C127.512 19.275 126.754 19.2083 125.971 19.075C125.204 18.9416 124.504 18.7166 123.871 18.4C123.537 18.2333 123.296 18.025 123.146 17.775C123.012 17.5083 122.954 17.2416 122.971 16.975C122.987 16.7083 123.071 16.4666 123.221 16.25C123.387 16.0333 123.596 15.8916 123.846 15.825C124.112 15.7416 124.404 15.7666 124.721 15.9C125.404 16.1833 126.029 16.3833 126.596 16.5C127.162 16.6166 127.721 16.675 128.271 16.675C128.987 16.675 129.504 16.5666 129.821 16.35C130.154 16.1166 130.321 15.8166 130.321 15.45C130.321 15.1166 130.212 14.8666 129.996 14.7C129.779 14.5333 129.462 14.4166 129.046 14.35L126.421 13.875C125.387 13.6916 124.587 13.3166 124.021 12.75C123.471 12.1666 123.196 11.425 123.196 10.525C123.196 9.69164 123.429 8.97498 123.896 8.37498C124.362 7.75831 125.004 7.29164 125.821 6.97498C126.654 6.64164 127.596 6.47498 128.646 6.47498C129.396 6.47498 130.087 6.54164 130.721 6.67498C131.354 6.80831 131.962 7.02498 132.546 7.32498C132.846 7.47498 133.054 7.67498 133.171 7.92498C133.304 8.17498 133.346 8.43331 133.296 8.69998C133.262 8.96664 133.162 9.20831 132.996 9.42498C132.829 9.64164 132.612 9.78331 132.346 9.84998C132.096 9.91664 131.804 9.88331 131.471 9.74998C130.937 9.49998 130.446 9.32498 129.996 9.22498C129.546 9.10831 129.112 9.04998 128.696 9.04998C127.946 9.04998 127.404 9.17498 127.071 9.42498C126.737 9.65831 126.571 9.95831 126.571 10.325C126.571 10.6083 126.662 10.85 126.846 11.05C127.046 11.2333 127.346 11.3583 127.746 11.425L130.371 11.9C131.454 12.0833 132.279 12.45 132.846 13C133.412 13.5333 133.696 14.2666 133.696 15.2C133.696 16.4666 133.196 17.4666 132.196 18.2C131.212 18.9166 129.896 19.275 128.246 19.275Z" fill="#333333"/>
<path d="M114.065 23.775C113.165 23.775 112.298 23.7 111.465 23.55C110.648 23.4 109.923 23.175 109.29 22.875C108.906 22.7083 108.631 22.4916 108.465 22.225C108.315 21.9583 108.248 21.675 108.265 21.375C108.298 21.075 108.398 20.8083 108.565 20.575C108.748 20.3416 108.973 20.175 109.24 20.075C109.506 19.9916 109.79 20.0166 110.09 20.15C110.823 20.4833 111.498 20.7 112.115 20.8C112.748 20.9 113.29 20.95 113.74 20.95C114.806 20.95 115.606 20.7083 116.14 20.225C116.673 19.7416 116.94 19 116.94 18V16.1H117.165C116.915 16.8666 116.398 17.4916 115.615 17.975C114.831 18.4583 113.965 18.7 113.015 18.7C111.915 18.7 110.956 18.45 110.14 17.95C109.323 17.4333 108.69 16.7166 108.24 15.8C107.79 14.8666 107.565 13.7916 107.565 12.575C107.565 11.6583 107.69 10.825 107.94 10.075C108.206 9.32498 108.573 8.68331 109.04 8.14998C109.523 7.61664 110.098 7.20831 110.765 6.92498C111.448 6.62498 112.198 6.47498 113.015 6.47498C113.998 6.47498 114.865 6.71664 115.615 7.19998C116.381 7.66664 116.89 8.28331 117.14 9.04998L116.89 9.84998V8.42498C116.89 7.80831 117.048 7.34164 117.365 7.02498C117.698 6.69164 118.165 6.52498 118.765 6.52498C119.365 6.52498 119.823 6.69164 120.14 7.02498C120.456 7.34164 120.615 7.80831 120.615 8.42498V17.575C120.615 19.625 120.048 21.1666 118.915 22.2C117.798 23.25 116.181 23.775 114.065 23.775ZM114.14 15.875C114.706 15.875 115.19 15.7416 115.59 15.475C116.006 15.2083 116.331 14.8333 116.565 14.35C116.798 13.85 116.915 13.2583 116.915 12.575C116.915 11.5416 116.656 10.7416 116.14 10.175C115.64 9.59164 114.973 9.29998 114.14 9.29998C113.573 9.29998 113.081 9.43331 112.665 9.69998C112.248 9.94998 111.923 10.325 111.69 10.825C111.473 11.3083 111.365 11.8916 111.365 12.575C111.365 13.6083 111.615 14.4166 112.115 15C112.615 15.5833 113.29 15.875 114.14 15.875Z" fill="#333333"/>
<path d="M95.1966 19.225C94.58 19.225 94.105 19.0583 93.7716 18.725C93.455 18.3916 93.2966 17.9166 93.2966 17.3V8.42498C93.2966 7.80831 93.455 7.34164 93.7716 7.02498C94.105 6.69164 94.5633 6.52498 95.1466 6.52498C95.7466 6.52498 96.205 6.69164 96.5216 7.02498C96.8383 7.34164 96.9966 7.80831 96.9966 8.42498V9.84998L96.7216 9.02498C97.105 8.20831 97.6716 7.58331 98.4216 7.14998C99.1883 6.69998 100.055 6.47498 101.022 6.47498C102.005 6.47498 102.813 6.66664 103.447 7.04998C104.08 7.41664 104.555 7.98331 104.872 8.74998C105.188 9.49998 105.347 10.4583 105.347 11.625V17.3C105.347 17.9166 105.18 18.3916 104.847 18.725C104.53 19.0583 104.063 19.225 103.447 19.225C102.847 19.225 102.38 19.0583 102.047 18.725C101.73 18.3916 101.572 17.9166 101.572 17.3V11.8C101.572 10.95 101.413 10.3416 101.097 9.97498C100.797 9.59164 100.33 9.39998 99.6966 9.39998C98.8966 9.39998 98.255 9.64998 97.7716 10.15C97.305 10.65 97.0716 11.3166 97.0716 12.15V17.3C97.0716 18.5833 96.4466 19.225 95.1966 19.225Z" fill="#333333"/>
<path d="M88.5073 19.2C87.8906 19.2 87.4156 19.025 87.0823 18.675C86.7656 18.3083 86.6073 17.8 86.6073 17.15V8.59995C86.6073 7.93328 86.7656 7.42495 87.0823 7.07495C87.4156 6.70828 87.8906 6.52495 88.5073 6.52495C89.1073 6.52495 89.5656 6.70828 89.8823 7.07495C90.2156 7.42495 90.3823 7.93328 90.3823 8.59995V17.15C90.3823 17.8 90.2239 18.3083 89.9073 18.675C89.5906 19.025 89.1239 19.2 88.5073 19.2ZM88.5073 4.47495C87.8073 4.47495 87.2656 4.31662 86.8823 3.99995C86.5156 3.66662 86.3323 3.19995 86.3323 2.59995C86.3323 1.98329 86.5156 1.51662 86.8823 1.19995C87.2656 0.866618 87.8073 0.699951 88.5073 0.699951C89.2073 0.699951 89.7406 0.866618 90.1073 1.19995C90.4739 1.51662 90.6573 1.98329 90.6573 2.59995C90.6573 3.19995 90.4739 3.66662 90.1073 3.99995C89.7406 4.31662 89.2073 4.47495 88.5073 4.47495Z" fill="#333333"/>
<path d="M70.124 19.225C69.624 19.225 69.199 19.1084 68.849 18.875C68.499 18.625 68.2157 18.2334 67.999 17.7L64.474 8.97502C64.2907 8.50836 64.2323 8.10002 64.299 7.75002C64.3657 7.38336 64.5407 7.09169 64.824 6.87502C65.124 6.64169 65.5323 6.52502 66.049 6.52502C66.4823 6.52502 66.8407 6.63336 67.124 6.85002C67.4073 7.05002 67.649 7.44169 67.849 8.02502L70.599 15.35H70.024L72.874 7.70002C73.0073 7.30002 73.199 7.00836 73.449 6.82502C73.7157 6.62502 74.0573 6.52502 74.474 6.52502C74.8907 6.52502 75.224 6.62502 75.474 6.82502C75.7407 7.02502 75.949 7.31669 76.099 7.70002L78.899 15.35H78.424L81.149 7.92502C81.349 7.39169 81.6073 7.02502 81.924 6.82502C82.2407 6.62502 82.5823 6.52502 82.949 6.52502C83.4157 6.52502 83.774 6.64169 84.024 6.87502C84.2907 7.10836 84.4407 7.40836 84.474 7.77502C84.524 8.14169 84.4573 8.54169 84.274 8.97502L80.774 17.7C80.574 18.2167 80.2907 18.6 79.924 18.85C79.574 19.1 79.149 19.225 78.649 19.225C78.1657 19.225 77.7407 19.1 77.374 18.85C77.024 18.6 76.7407 18.2167 76.524 17.7L73.524 9.90002H75.149L72.224 17.675C72.024 18.1917 71.749 18.5834 71.399 18.85C71.049 19.1 70.624 19.225 70.124 19.225Z" fill="#333333"/>
<path d="M57.948 19.275C56.498 19.275 55.248 19.0166 54.198 18.5C53.1647 17.9666 52.3647 17.225 51.798 16.275C51.248 15.3083 50.973 14.175 50.973 12.875C50.973 11.6083 51.2397 10.5 51.773 9.54998C52.3064 8.58331 53.048 7.83331 53.998 7.29998C54.9647 6.74998 56.0564 6.47498 57.273 6.47498C58.1564 6.47498 58.9564 6.62498 59.673 6.92498C60.3897 7.20831 61.0064 7.62498 61.523 8.17498C62.0397 8.70831 62.4314 9.36664 62.698 10.15C62.9647 10.9166 63.098 11.775 63.098 12.725C63.098 13.0416 62.998 13.2833 62.798 13.45C62.598 13.6 62.3064 13.675 61.923 13.675H54.073V11.725H60.373L59.973 12.075C59.973 11.3916 59.873 10.825 59.673 10.375C59.473 9.90831 59.1814 9.55831 58.798 9.32498C58.4314 9.09164 57.973 8.97498 57.423 8.97498C56.8064 8.97498 56.2814 9.11664 55.848 9.39998C55.4147 9.68331 55.0814 10.0916 54.848 10.625C54.6147 11.1583 54.498 11.8 54.498 12.55V12.75C54.498 14.0166 54.7897 14.95 55.373 15.55C55.973 16.15 56.8564 16.45 58.023 16.45C58.423 16.45 58.8814 16.4 59.398 16.3C59.9147 16.2 60.398 16.0416 60.848 15.825C61.2314 15.6416 61.573 15.5833 61.873 15.65C62.173 15.7 62.4064 15.8333 62.573 16.05C62.7397 16.2666 62.8314 16.5166 62.848 16.8C62.8814 17.0833 62.823 17.3666 62.673 17.65C62.523 17.9166 62.273 18.1416 61.923 18.325C61.3564 18.6416 60.7147 18.875 59.998 19.025C59.298 19.1916 58.6147 19.275 57.948 19.275Z" fill="#333333"/>
<path d="M41.0892 19.275C40.0226 19.275 39.0809 19.0167 38.2642 18.5C37.4642 17.9834 36.8392 17.2417 36.3892 16.275C35.9392 15.3084 35.7142 14.1667 35.7142 12.85C35.7142 11.5334 35.9392 10.4 36.3892 9.45002C36.8392 8.50002 37.4642 7.76669 38.2642 7.25002C39.0809 6.73336 40.0226 6.47502 41.0892 6.47502C42.0559 6.47502 42.9059 6.70836 43.6392 7.17502C44.3892 7.64169 44.8976 8.25003 45.1642 9.00003H44.8892V3.07503C44.8892 2.44169 45.0476 1.96669 45.3642 1.65003C45.6809 1.31669 46.1476 1.15002 46.7642 1.15002C47.3642 1.15002 47.8309 1.31669 48.1642 1.65003C48.4976 1.96669 48.6642 2.44169 48.6642 3.07503V17.3C48.6642 17.9167 48.4976 18.3917 48.1642 18.725C47.8476 19.0584 47.3892 19.225 46.7892 19.225C46.1892 19.225 45.7226 19.0584 45.3892 18.725C45.0726 18.3917 44.9142 17.9167 44.9142 17.3V15.6L45.1892 16.575C44.9559 17.3917 44.4559 18.05 43.6892 18.55C42.9392 19.0334 42.0726 19.275 41.0892 19.275ZM42.2142 16.45C42.7642 16.45 43.2392 16.3167 43.6392 16.05C44.0392 15.7834 44.3559 15.3917 44.5892 14.875C44.8226 14.3417 44.9392 13.6667 44.9392 12.85C44.9392 11.6334 44.6892 10.7417 44.1892 10.175C43.6892 9.59169 43.0309 9.30002 42.2142 9.30002C41.6809 9.30002 41.2059 9.42503 40.7892 9.67502C40.3892 9.92503 40.0726 10.3167 39.8392 10.85C39.6226 11.3667 39.5142 12.0334 39.5142 12.85C39.5142 14.0667 39.7642 14.975 40.2642 15.575C40.7642 16.1584 41.4142 16.45 42.2142 16.45Z" fill="#333333"/>
<path d="M31.5249 19.2C30.9082 19.2 30.4332 19.025 30.0999 18.675C29.7832 18.3083 29.6249 17.8 29.6249 17.15V8.59995C29.6249 7.93328 29.7832 7.42495 30.0999 7.07495C30.4332 6.70828 30.9082 6.52495 31.5249 6.52495C32.1249 6.52495 32.5832 6.70828 32.8999 7.07495C33.2332 7.42495 33.3999 7.93328 33.3999 8.59995V17.15C33.3999 17.8 33.2415 18.3083 32.9249 18.675C32.6082 19.025 32.1415 19.2 31.5249 19.2ZM31.5249 4.47495C30.8249 4.47495 30.2832 4.31662 29.8999 3.99995C29.5332 3.66662 29.3499 3.19995 29.3499 2.59995C29.3499 1.98329 29.5332 1.51662 29.8999 1.19995C30.2832 0.866618 30.8249 0.699951 31.5249 0.699951C32.2249 0.699951 32.7582 0.866618 33.1249 1.19995C33.4915 1.51662 33.6749 1.98329 33.6749 2.59995C33.6749 3.19995 33.4915 3.66662 33.1249 3.99995C32.7582 4.31662 32.2249 4.47495 31.5249 4.47495Z" fill="#333333"/>
<path d="M7.29996 19.225C6.76663 19.225 6.3333 19.1 5.99996 18.85C5.66663 18.5834 5.39996 18.1834 5.19996 17.65L0.149962 3.45002C-0.0667045 2.81669 -0.0250378 2.27502 0.274962 1.82502C0.591629 1.37502 1.1333 1.15002 1.89996 1.15002C2.4333 1.15002 2.84163 1.27502 3.12496 1.52502C3.42496 1.77503 3.66663 2.16669 3.84996 2.70003L7.97496 14.975H6.89996L11.25 2.72503C11.45 2.19169 11.6916 1.80003 11.975 1.55003C12.275 1.28336 12.6666 1.15002 13.15 1.15002C13.6166 1.15002 13.9916 1.28336 14.275 1.55003C14.5583 1.80003 14.8 2.20002 15 2.75002L19.15 14.975H18.225L22.425 2.70003C22.5916 2.18336 22.825 1.80003 23.125 1.55003C23.425 1.28336 23.8333 1.15002 24.35 1.15002C25 1.15002 25.475 1.37502 25.775 1.82502C26.075 2.27502 26.1083 2.81669 25.875 3.45002L20.775 17.675C20.5916 18.1917 20.3416 18.5834 20.025 18.85C19.7083 19.1 19.275 19.225 18.725 19.225C18.1916 19.225 17.7666 19.1 17.45 18.85C17.1333 18.5834 16.875 18.1834 16.675 17.65L12.725 6.47502H13.325L9.32496 17.675C9.12496 18.1917 8.86663 18.5834 8.54996 18.85C8.24996 19.1 7.8333 19.225 7.29996 19.225Z" fill="#333333"/>
</svg>
